<svg xmlns="http://www.w3.org/2000/svg" viewBox="0 0 512 512">
  <path fill="#f27281" d="M283.21 115.87c-5.57-35.24-20.08-69.6-40.86-96.77a29.53 29.53 0 00-50.2 30.5c.48 1.01-.69 2-1.62 1.38A208.38 208.38 0 00145 27.4c-15.27-5.58-32.92 1.84-38.63 17.06a29.54 29.54 0 0017.69 38.18c2.47.89 4.93 1.86 7.38 2.9 1.92.82 1.05 3.7-1 3.33a198.16 198.16 0 00-25.53-2.95 29.54 29.54 0 00-2.89 59c24.53 1.2 50.29 9.29 72.53 22.78 20.24 12.27 32.37 26.13 35.42 34.42a29.55 29.55 0 0041.22 16.06 29.49 29.49 0 0021.64-14.68c12.05-21.23 15.84-53.17 10.4-87.64z"/>
  <path fill="#ea6376" d="M111.86 145.78c21.47 2.6 43.4 10.23 62.69 21.93 20.23 12.26 32.36 26.12 35.41 34.41a29.55 29.55 0 0041.22 16.06 29.49 29.49 0 0021.64-14.67c12.05-21.23 15.84-53.18 10.4-87.64a218.82 218.82 0 00-5.75-25.9c-8.1-1-16.34-1.54-24.71-1.54a200.89 200.89 0 00-140.9 57.35z"/>
  <path fill="#ebecec" d="M265.05 110.23C153.7 110.17 63.4 200.43 63.4 311.78c0 41.1-16.84 111.01-16.84 111.01A69.6 69.6 0 00103 503.43c37.9 5.62 62.21-24.28 74.75-46.37a7.93 7.93 0 0114.35 1.25 69.63 69.63 0 0065.57 46.19c36.27 0 54.38-24.43 62.87-42.78a7.39 7.39 0 0113.39.02c8.43 18.34 26.5 42.76 62.95 42.76a69.6 69.6 0 0069.6-69.6V313.7c0-111.58-89.85-203.41-201.44-203.47z"/>
  <path fill="#f27281" d="M345.33 382.73c-15.15-19.03-19.52-37.23-22.12-48.1l-.06-.23a18.07 18.07 0 00-20.6-13.59 18.08 18.08 0 00-20.6 13.6l-.06.22c-2.6 10.87-6.97 29.07-22.13 48.1a18.09 18.09 0 0028.3 22.53c6-7.54 10.73-14.96 14.49-22.01a144.17 144.17 0 0014.48 22.01 18.05 18.05 0 0025.42 2.89 18.09 18.09 0 002.88-25.42z"/>
  <path d="M323.2 334.63l-.05-.23a18.07 18.07 0 00-20.6-13.59 18.08 18.08 0 00-20.6 13.6l-.06.22c-1.36 5.67-3.21 13.35-6.81 22.08a28.15 28.15 0 0018.14 6.6h18.12c7 0 13.53-2.26 18.88-6.12-3.73-8.93-5.63-16.78-7.01-22.56z" opacity=".1"/>
  <g fill="#f27281">
    <ellipse cx="206.59" cy="272.83" rx="33.94" ry="27.03"/>
    <ellipse cx="390.57" cy="272.83" rx="33.94" ry="27.03"/>
  </g>
  <path fill="#f7d88b" d="M361.38 316.87h-92.61V278.5a21.13 21.13 0 0121.13-21.14h19.72a60.73 60.73 0 0159.76 49.94 8.13 8.13 0 01-8 9.57z"/>
  <path fill="#eac268" d="M341.08 316.87h-72.31v7.44a25.57 25.57 0 0025.57 25.57h16.39a29.19 29.19 0 0028.72-24l1.63-9.01z"/>
  <path d="M207.47 118.56C124.17 143.31 63.4 220.44 63.4 311.78c0 41.1-16.84 111.01-16.84 111.01A69.6 69.6 0 00103 503.43c22.96 3.4 40.92-6.23 54.31-19.26-50.43-10.15-4-72.37-14.69-121.53-21.12-97.17-1.42-198.75 64.84-244.08z" opacity=".08"/>
  <path d="M70.9 311.78c0-51.85 20.2-100.6 56.87-137.25a197.35 197.35 0 0118.49-16.3 192.56 192.56 0 01118.69-40.5h.1c54.67.03 107.11 23.63 143.86 64.74a7.5 7.5 0 1011.19-10 208.89 208.89 0 00-131.45-68.35c-6.8-32.69-21-64.3-40.34-89.58A36.8 36.8 0 00223.78.33a36.8 36.8 0 00-27.39 7.3 37.23 37.23 0 00-14.5 29 210.13 210.13 0 00-34.33-16.27c-19.48-7.11-41.11 2.52-48.22 21.48a36.78 36.78 0 001.07 28.58 37.3 37.3 0 005.03 8.02h-.17a36.79 36.79 0 00-26.69 9.55 36.8 36.8 0 00-12.12 25.63 37.08 37.08 0 0035.19 38.8 135.8 135.8 0 0124.07 3.42c-2.9 2.61-5.77 5.3-8.56 8.08A207.67 207.67 0 0055.9 311.78c0 39.73-16.47 108.57-16.63 109.26l-.1.45a77.27 77.27 0 0015.03 60.68 7.49 7.49 0 0010.53 1.33 7.5 7.5 0 001.32-10.52 62.24 62.24 0 01-12.14-48.66c1.25-5.25 17-71.82 17-112.54zm31.48-174.34a22.06 22.06 0 01-20.93-23.1 21.9 21.9 0 017.2-15.24c4.37-3.96 10.01-5.98 15.88-5.69 8.05.4 16.32 1.35 24.57 2.85a9.25 9.25 0 005.28-17.6c-2.58-1.1-5.2-2.14-7.8-3.07-5.6-2-10.06-6.08-12.56-11.48a21.89 21.89 0 01-.63-17c4.15-11.1 17.45-16.89 29.03-12.66a200.24 200.24 0 0143.9 22.72 8.62 8.62 0 0010.42-.56 8.62 8.62 0 002.2-10.2 22.14 22.14 0 016.57-26.87 21.87 21.87 0 0116.3-4.34 21.89 21.89 0 0114.59 8.46c17.15 22.42 29.96 50.26 36.62 79.25a205 205 0 00-7.96-.18h-.11c-45.65 0-89.07 14.54-124.97 41.42a155.01 155.01 0 00-37.6-6.71zm339.64 64.29a7.5 7.5 0 00-12.73 7.93 196.58 196.58 0 0129.7 104.05V434.9a62.18 62.18 0 01-62.1 62.1c-31.82 0-48.09-20.88-56.13-38.4a14.72 14.72 0 00-13.5-8.63h-.02a14.7 14.7 0 00-13.5 8.6c-8.1 17.53-24.42 38.43-56.06 38.43a62.25 62.25 0 01-58.5-41.22 15.25 15.25 0 00-13.2-10.15 15.26 15.26 0 00-14.74 7.73c-22.73 40.03-48.98 45.31-67.03 42.67a62.23 62.23 0 01-15.56-4.94 7.5 7.5 0 00-6.38 13.58 77.2 77.2 0 0019.64 6.18c32.09 4.76 61.34-13.03 82.38-50.08.06-.12.13-.21.4-.2.27.03.31.13.36.26A77.28 77.28 0 00257.68 512c30.78 0 55.46-16.64 69.56-46.88C341.23 495.35 365.95 512 396.9 512c42.51 0 77.1-34.59 77.1-77.1V313.7c0-39.67-11.05-78.39-31.97-111.97zm-55.08 49.18a7.5 7.5 0 007.5-7.5 23.68 23.68 0 00-23.65-23.65 23.68 23.68 0 00-23.66 23.65 7.5 7.5 0 1015 0 8.66 8.66 0 0117.31 0 7.5 7.5 0 007.5 7.5zm-160.57-31.15a23.68 23.68 0 00-23.65 23.65 7.5 7.5 0 1015 0 8.66 8.66 0 0117.3 0 7.5 7.5 0 1015 0 23.68 23.68 0 00-23.65-23.65zm120.46 107.46l.52-2.85h14.03a15.59 15.59 0 0015.38-18.4 68.18 68.18 0 00-67.14-56.1H289.9a28.67 28.67 0 00-28.63 28.63v45.81c0 8.93 3.56 17.03 9.32 22.98a100.26 100.26 0 01-16.69 30.77 25.62 25.62 0 0020 41.52c7.85 0 15.15-3.51 20.03-9.64 3.07-3.86 5.95-7.85 8.62-11.96 2.67 4.1 5.55 8.1 8.62 11.96a25.47 25.47 0 0020.03 9.64c5.76 0 11.41-1.97 15.93-5.57a25.62 25.62 0 004.07-35.95 99.96 99.96 0 01-16.34-29.73 36.62 36.62 0 0011.97-21.1zm-7.36 60.18a10.6 10.6 0 01-16.57 13.2 137.44 137.44 0 01-13.73-20.88 7.5 7.5 0 00-13.24 0c-3.88 7.28-8.5 14.3-13.74 20.87a10.54 10.54 0 01-14.87 1.69 10.6 10.6 0 01-1.69-14.88 114.4 114.4 0 0017.94-31.82c3.38 1.16 7 1.8 10.77 1.8h16.39c3.76 0 7.4-.57 10.85-1.64a114.4 114.4 0 0017.89 31.66zm-63.2-63.03h55.83l-.03.19a21.67 21.67 0 01-21.34 17.83h-16.39a18.09 18.09 0 01-18.07-18.02zm0-15V278.5c0-7.52 6.12-13.64 13.63-13.64h19.72A53.2 53.2 0 01362 308.63a.6.6 0 01-.14.51c-.18.23-.4.23-.48.23h-85.11z"/>
</svg>
